# Alias OBJ Model File
# Exported from SketchUp, (c) 2000-2012 Trimble Navigation Limited
# File units = meters

mtllib Box.mtl

g Mesh1 Model

usemtl FrontColor
v 1.31 -1.31 -1.31
vt 51.5748 -51.5748
vn 1 1.37769e-016 -2.10893e-033
v 1.31 1.31 1.31
vt -51.5748 51.5748
v 1.31 -1.31 1.31
vt -51.5748 -51.5748
f 1/1/1 2/2/1 3/3/1

v 1.31 1.31 -1.31
vt 51.5748 51.5748
f 2/2/1 1/1/1 4/4/1

vn 0 0 -1
v -1.31 1.31 -1.31
f 1/3/2 5/4/2 4/2/2

v -1.31 -1.31 -1.31
f 5/4/2 1/3/2 6/1/2

vn 1.37769e-016 -1 -0
v -1.31 -1.31 1.31
f 1/2/3 7/1/3 6/4/3

f 7/1/3 1/2/3 3/3/3

vn 0 0 1
f 2/4/4 7/3/4 3/1/4

v -1.31 1.31 1.31
f 7/3/4 2/4/4 8/2/4

vn -1.37769e-016 1 -0
f 2/1/5 5/2/5 8/3/5

f 5/2/5 2/1/5 4/4/5

vn -1 -1.37769e-016 1.15991e-032
f 5/2/6 7/1/6 8/4/6

f 7/1/6 5/2/6 6/3/6

